<?xml version="1.0" standalone="no"?>
<!DOCTYPE svg PUBLIC "-//W3C//DTD SVG 20010904//EN"
 "http://www.w3.org/TR/2001/REC-SVG-20010904/DTD/svg10.dtd">
<svg version="1.0" xmlns="http://www.w3.org/2000/svg"
 width="512.000000pt" height="512.000000pt" viewBox="0 0 512.000000 512.000000"
 preserveAspectRatio="xMidYMid meet">
<metadata>
Created by potrace 1.16, written by Peter Selinger 2001-2019
</metadata>
<g transform="translate(0.000000,512.000000) scale(0.100000,-0.100000)"
fill="currentColor" stroke="none">
<path d="M2425 4949 c-491 -39 -958 -233 -1310 -545 -426 -376 -685 -835 -771
-1364 -24 -149 -33 -364 -23 -520 35 -524 208 -957 534 -1339 259 -302 637
-566 991 -691 112 -40 284 -84 394 -101 111 -18 516 -18 620 -1 395 68 696
197 1015 437 483 363 801 880 899 1463 93 553 -25 1142 -323 1612 -181 285
-401 511 -676 697 -137 92 -392 212 -550 258 -33 9 -73 21 -90 27 -167 52
-501 84 -710 67z m405 -90 c460 -50 915 -273 1255 -614 420 -419 655 -985 655
-1575 0 -745 -369 -1425 -1010 -1865 -101 -69 -310 -180 -434 -230 -114 -46
-320 -99 -461 -120 -147 -22 -425 -22 -570 0 -418 61 -812 256 -1166 576 -79
71 -212 220 -290 324 -489 653 -567 1560 -197 2288 259 509 710 916 1218 1099
328 119 646 156 1000 117z"/>
<path d="M2192 4458 c-26 -26 -9 -62 33 -69 28 -6 33 -36 34 -224 0 -205 -9
-289 -41 -352 -34 -68 -189 -356 -198 -368 -4 -5 -18 -30 -32 -55 -14 -25 -76
-137 -138 -249 -134 -243 -137 -251 -150 -339 -32 -229 116 -440 339 -482 31
-6 247 -10 510 -10 496 0 523 2 623 57 68 37 144 121 181 201 29 61 31 76 32
172 0 75 -5 118 -17 152 -14 38 -129 257 -228 433 -9 17 -47 86 -85 155 -37
69 -81 149 -97 179 -71 128 -109 211 -118 261 -13 67 -13 410 -1 444 7 17 19
26 38 28 25 3 28 7 28 38 l0 35 -350 3 c-265 2 -354 -1 -363 -10z m570 -303
c-2 -190 0 -245 13 -288 12 -42 97 -207 205 -402 9 -16 38 -70 65 -120 27 -49
75 -136 107 -193 32 -57 81 -150 110 -208 52 -105 53 -107 52 -197 0 -78 -4
-101 -26 -148 -14 -31 -42 -74 -62 -96 -37 -42 -130 -97 -181 -107 -16 -3
-246 -7 -510 -8 -474 -1 -481 -1 -538 21 -79 31 -136 77 -175 141 -44 75 -55
120 -50 220 l4 86 161 289 c284 514 361 659 378 716 13 47 15 99 13 293 l-3
236 220 0 220 0 -3 -235z"/>
<path d="M2729 3564 c-13 -15 -95 -74 -182 -131 -171 -114 -245 -185 -290
-276 -63 -129 -52 -301 26 -411 19 -27 21 -28 28 -10 4 10 8 30 8 44 1 42 49
179 82 237 50 87 229 298 229 270 0 -3 -37 -56 -82 -116 -103 -135 -149 -220
-183 -336 -32 -109 -39 -236 -14 -260 15 -15 17 -12 22 37 9 75 45 119 162
199 55 38 123 92 152 121 59 59 114 157 133 237 18 78 8 259 -20 338 -28 81
-40 90 -71 57z"/>
<path d="M3210 4190 c0 -12 -9 -38 -20 -59 -19 -38 -57 -61 -101 -61 -11 0
-19 -4 -19 -10 0 -5 9 -10 21 -10 63 0 119 -59 119 -125 0 -40 17 -29 23 15 8
60 31 88 82 102 47 13 60 28 25 28 -55 0 -110 57 -110 115 0 14 -4 25 -10 25
-5 0 -10 -9 -10 -20z"/>
<path d="M1875 4131 c-7 -34 -23 -49 -62 -60 -25 -8 -26 -9 -8 -15 40 -14 50
-23 67 -55 l17 -33 15 36 c8 20 22 38 31 41 50 16 51 17 12 32 -29 12 -39 23
-44 44 -8 41 -20 45 -28 10z"/>
<path d="M3886 4053 c-26 -27 -64 -81 -84 -122 l-37 -75 -5 -185 c-5 -178 -6
-184 -17 -128 -17 79 -68 172 -118 212 -41 34 -139 85 -162 85 -34 0 8 -159
60 -230 19 -25 54 -58 78 -74 66 -45 99 -77 122 -121 19 -36 22 -56 22 -202 0
-116 -4 -166 -13 -175 -9 -9 -12 -4 -12 28 0 50 -25 146 -47 182 -44 72 -117
123 -197 138 l-39 7 7 -36 c17 -89 55 -143 168 -239 43 -36 58 -57 68 -93 21
-74 1 -218 -44 -326 -4 -10 -2 -19 7 -22 10 -4 27 19 57 80 50 101 100 153
178 184 71 28 119 58 154 95 34 37 92 154 81 164 -12 12 -99 -6 -151 -31 -64
-31 -109 -83 -153 -175 -22 -45 -49 -90 -60 -100 -14 -13 -19 -14 -15 -3 2 8
9 37 16 64 27 112 74 247 100 289 16 25 53 60 86 82 96 64 168 142 194 210 12
32 25 78 27 101 l5 41 -33 -7 c-95 -22 -188 -87 -234 -165 -13 -23 -40 -97
-59 -165 -20 -68 -39 -127 -42 -130 -12 -11 4 343 17 379 7 19 29 60 49 90 78
116 100 183 100 307 0 81 -5 113 -20 113 -4 0 -28 -21 -54 -47z m32 -111 c-5
-83 -27 -144 -87 -237 l-32 -50 3 95 c3 76 9 106 29 150 24 51 73 120 86 120
3 0 4 -35 1 -78z m-363 -188 c64 -37 145 -160 145 -219 0 -18 -27 -3 -97 53
-42 34 -103 136 -103 174 0 23 3 23 55 -8z m545 -181 c-23 -72 -70 -133 -143
-184 -39 -27 -72 -47 -74 -45 -8 8 19 92 42 132 14 23 41 56 61 74 36 31 114
73 122 65 2 -2 -1 -21 -8 -42z m-549 -261 c24 -16 52 -38 61 -48 22 -25 61
-114 54 -121 -13 -13 -122 85 -148 132 -42 76 -37 81 33 37z m495 -189 c-27
-51 -86 -104 -142 -129 -31 -14 -59 -23 -61 -20 -3 3 12 31 33 63 29 43 53 64
93 85 29 15 62 28 72 28 18 0 18 -2 5 -27z"/>
<path d="M1206 4008 c-9 -12 -16 -32 -16 -45 0 -31 -154 -127 -181 -113 -28
16 -57 12 -79 -10 -27 -27 -25 -66 5 -94 23 -21 25 -30 25 -109 0 -78 -2 -88
-25 -111 -38 -38 -33 -81 13 -105 18 -10 30 -10 51 -1 25 10 34 7 77 -19 27
-17 64 -38 82 -48 22 -12 32 -24 32 -40 0 -13 11 -35 25 -49 22 -22 25 -33 25
-102 0 -65 -3 -79 -19 -89 -51 -32 -27 -113 34 -113 62 0 86 67 40 110 -22 21
-25 32 -25 96 0 65 3 76 25 98 14 14 25 35 25 48 1 18 19 34 82 71 71 42 85
47 105 38 34 -16 50 -14 73 9 28 28 26 71 -5 100 -23 22 -25 31 -25 111 0 81
2 88 25 103 49 32 23 116 -36 116 -13 0 -31 -4 -39 -10 -15 -9 -28 -3 -132 63
-33 21 -48 37 -48 51 0 38 -28 66 -65 66 -24 0 -39 -7 -49 -22z m24 -100 c15
-9 27 -10 48 -2 26 10 37 6 111 -38 63 -38 81 -54 81 -72 0 -12 11 -33 25 -46
23 -22 25 -31 25 -111 0 -81 -2 -90 -25 -113 -14 -14 -25 -36 -25 -49 0 -18
-17 -33 -81 -72 -69 -41 -84 -47 -100 -37 -24 15 -44 15 -68 1 -15 -10 -32 -4
-99 37 -70 42 -82 53 -82 76 0 16 -9 34 -25 46 -23 19 -25 26 -25 107 0 81 2
90 25 111 14 13 25 34 25 48 0 20 15 34 83 75 45 28 83 51 85 51 1 0 11 -6 22
-12z"/>
<path d="M4048 2845 c-15 -9 -32 -24 -38 -35 -16 -31 -12 -85 10 -113 l21 -26
-27 -79 c-26 -78 -28 -80 -87 -115 l-61 -36 -24 20 c-77 60 -185 -26 -147
-117 16 -40 41 -54 93 -54 33 0 45 6 66 31 14 17 26 43 26 59 0 30 4 35 71 73
l47 26 70 -49 c69 -48 71 -51 70 -92 0 -35 5 -47 31 -70 41 -37 81 -37 122 0
81 73 2 198 -99 156 -35 -14 -37 -14 -81 17 -25 18 -56 41 -68 51 l-21 20 25
74 c22 66 28 74 50 74 15 0 38 13 59 34 43 43 45 83 7 126 -34 36 -78 46 -115
25z m76 -46 c30 -23 33 -45 10 -77 -18 -26 -56 -29 -78 -6 -24 23 -20 70 6 88
29 20 30 20 62 -5z m-300 -375 c17 -16 21 -51 8 -70 -4 -6 -17 -16 -30 -23
-49 -26 -91 35 -62 90 13 23 62 26 84 3z m442 -49 c27 -27 26 -59 -4 -82 -32
-25 -74 -9 -87 34 -4 17 1 29 19 48 14 14 30 25 36 25 6 0 22 -11 36 -25z"/>
<path d="M923 2705 c15 -106 99 -206 205 -245 34 -12 74 -36 91 -54 l32 -33
-59 16 c-58 14 -62 14 -133 -10 -47 -15 -74 -30 -74 -39 0 -23 79 -61 137 -67
34 -3 73 1 109 11 63 18 78 15 132 -28 30 -24 40 -27 50 -17 9 10 7 17 -13 34
-68 59 -74 96 -30 189 24 51 30 76 30 132 0 76 -17 149 -34 143 -6 -2 -26 -23
-43 -46 -45 -58 -67 -139 -59 -214 8 -78 -7 -66 -63 49 -23 46 -59 102 -80
124 -38 40 -150 100 -185 100 -16 0 -18 -5 -13 -45z m103 -34 c47 -29 96 -82
121 -131 12 -24 20 -46 18 -48 -2 -2 -23 5 -47 16 -68 31 -120 88 -138 151
-10 37 0 40 46 12z m336 -84 c0 -49 -7 -77 -25 -113 l-25 -49 -7 47 c-4 25 -4
61 0 80 9 40 44 112 52 105 3 -3 5 -35 5 -70z m-147 -247 l30 -13 -40 -12
c-42 -13 -96 -9 -130 8 -19 10 -18 11 10 24 33 15 84 12 130 -7z"/>
<path d="M945 2026 c-76 -34 -115 -100 -115 -195 0 -71 12 -106 48 -144 43
-46 80 -61 152 -61 67 0 110 16 143 51 16 19 16 20 -6 41 l-24 22 -18 -20
c-25 -28 -83 -42 -124 -30 -54 15 -78 36 -97 86 -38 100 28 204 129 204 20 0
50 -11 72 -26 l38 -25 21 20 c25 26 16 46 -34 73 -41 22 -140 24 -185 4z"/>
<path d="M2827 2034 c-4 -4 -7 -97 -7 -206 l0 -198 35 0 35 0 -2 203 -3 202
-25 3 c-14 2 -29 0 -33 -4z"/>
<path d="M3065 2026 c-51 -22 -102 -88 -115 -148 -11 -46 -10 -63 4 -109 33
-111 127 -165 242 -139 44 10 49 9 75 -16 23 -22 30 -24 48 -15 26 14 26 26 1
58 l-20 26 23 36 c18 29 22 51 22 113 0 69 -3 81 -30 120 -54 77 -167 110
-250 74z m168 -85 c42 -39 42 -40 42 -110 0 -83 -14 -107 -43 -70 -17 21 -23
22 -46 11 -32 -14 -33 -29 -5 -58 l21 -23 -35 -6 c-44 -9 -101 17 -131 58 -27
37 -29 131 -3 171 25 38 76 66 120 66 30 0 46 -8 80 -39z"/>
<path d="M3664 2027 c-2 -7 -3 -98 -2 -202 l3 -190 33 -3 32 -3 0 205 0 206
-30 0 c-17 0 -33 -6 -36 -13z"/>
<path d="M4080 1835 l0 -205 29 0 c16 0 31 5 33 10 2 7 17 5 42 -5 39 -17 82
-13 119 9 28 17 59 84 59 130 1 67 -24 112 -76 138 -45 22 -63 21 -133 -8 -10
-4 -13 12 -13 65 l0 71 -30 0 -30 0 0 -205z m181 22 c45 -35 53 -114 14 -152
-39 -40 -96 -32 -120 16 -26 49 -15 106 24 136 20 16 62 16 82 0z"/>
<path d="M2620 1966 c0 -42 -2 -46 -25 -46 -20 0 -25 -5 -25 -25 0 -20 5 -25
24 -25 24 0 24 -2 28 -99 4 -122 16 -141 88 -141 55 0 59 3 52 36 -3 18 -9 23
-22 19 -42 -13 -50 2 -50 96 l0 89 35 0 c31 0 35 3 35 25 0 22 -4 25 -34 25
-34 0 -35 1 -38 43 -3 39 -5 42 -35 45 -33 3 -33 3 -33 -42z"/>
<path d="M1315 1918 c-62 -22 -95 -74 -95 -148 0 -137 164 -198 258 -96 29 33
32 41 32 101 0 58 -3 68 -31 99 -28 33 -81 57 -119 55 -8 0 -28 -5 -45 -11z
m88 -59 c79 -36 51 -178 -35 -179 -40 0 -57 9 -73 41 -24 45 -19 87 14 120 31
31 55 36 94 18z"/>
<path d="M1605 1916 c-31 -13 -55 -51 -55 -85 0 -32 33 -60 90 -79 45 -16 55
-23 55 -42 0 -34 -35 -43 -81 -19 -35 17 -39 18 -56 2 -17 -15 -17 -17 -1 -35
21 -23 87 -41 123 -33 54 12 80 41 80 91 0 39 -4 47 -32 64 -18 11 -47 23 -65
26 -38 7 -56 25 -47 48 7 19 56 21 84 4 16 -10 23 -10 36 4 20 20 11 36 -32
54 -41 17 -60 17 -99 0z"/>
<path d="M1903 1910 c-27 -16 -33 -17 -33 -5 0 10 -10 15 -30 15 l-30 0 0
-145 0 -145 30 0 30 0 0 94 c0 79 3 97 21 120 25 32 62 34 83 4 12 -17 16 -48
16 -120 l0 -98 29 0 29 0 4 99 c3 107 18 141 63 141 44 0 55 -28 55 -138 l0
-102 30 0 30 0 0 116 c0 63 -5 124 -10 135 -27 49 -114 61 -156 21 -18 -18
-20 -17 -53 5 -41 28 -66 29 -108 3z"/>
<path d="M2360 1908 c-99 -50 -108 -195 -17 -262 56 -41 184 -17 195 37 5 23
-34 31 -60 13 -47 -34 -128 -5 -128 44 0 19 7 20 100 20 l100 0 0 35 c0 103
-97 160 -190 113z m109 -59 c34 -32 22 -44 -52 -47 -74 -3 -86 9 -47 48 26 26
70 26 99 -1z"/>
<path d="M3854 1920 c-17 -5 -39 -19 -49 -30 -18 -19 -18 -21 0 -40 l18 -20
22 20 c27 25 77 26 98 2 27 -30 20 -42 -23 -42 -49 0 -117 -26 -130 -51 -17
-31 -11 -77 13 -105 20 -22 32 -27 70 -27 25 0 54 6 63 14 13 11 18 11 21 2 3
-7 18 -13 34 -13 l29 0 0 104 c0 58 -4 116 -10 130 -18 49 -92 75 -156 56z
m104 -187 c-5 -39 -50 -70 -85 -57 -34 12 -44 52 -17 71 10 7 38 13 62 13 41
0 43 -1 40 -27z"/>
<path d="M3400 1655 l0 -25 105 0 105 0 0 25 0 25 -105 0 -105 0 0 -25z"/>
<path d="M1124 1437 c-3 -8 -4 -52 -2 -98 l3 -84 63 -3 c38 -2 62 1 62 8 0 5
-22 10 -51 10 l-50 0 3 33 c3 30 6 32 46 35 23 2 42 7 42 12 0 5 -19 10 -42
12 -39 3 -43 6 -46 31 -3 25 -1 27 32 27 42 0 68 9 60 21 -9 15 -114 11 -120
-4z"/>
<path d="M2300 1435 c0 -8 7 -15 15 -15 8 0 15 7 15 15 0 8 -7 15 -15 15 -8 0
-15 -7 -15 -15z"/>
<path d="M2750 1350 l0 -100 53 0 c76 0 108 38 73 85 -10 14 -11 25 -3 42 7
17 6 28 -7 48 -14 21 -24 25 -66 25 l-50 0 0 -100z m86 66 c25 -19 8 -50 -30
-54 -24 -3 -26 0 -26 32 0 40 20 48 56 22z m15 -92 c19 -23 -1 -48 -40 -52
-30 -3 -31 -2 -31 32 0 33 2 36 29 36 16 0 34 -7 42 -16z"/>
<path d="M3370 1415 c0 -7 -8 -19 -17 -25 -17 -10 -17 -10 0 -20 12 -8 17 -24
17 -60 0 -50 18 -73 48 -63 18 7 15 20 -8 26 -16 4 -20 14 -20 47 0 33 4 43
20 47 11 3 20 9 20 14 0 5 -9 9 -20 9 -13 0 -20 7 -20 20 0 11 -4 20 -10 20
-5 0 -10 -7 -10 -15z"/>
<path d="M1280 1318 c0 -39 4 -68 10 -68 6 0 10 20 10 44 0 41 18 76 39 76 19
0 31 -28 31 -72 0 -26 5 -48 10 -48 6 0 10 20 10 44 0 41 18 76 39 76 19 0 31
-28 31 -72 0 -36 4 -48 15 -48 22 0 21 103 -1 124 -18 18 -47 21 -74 6 -12 -7
-21 -7 -25 0 -3 5 -26 9 -50 8 l-45 -2 0 -68z"/>
<path d="M1524 1381 c-2 -2 -4 -46 -4 -98 0 -76 3 -93 15 -93 10 0 15 11 15
35 0 33 1 34 25 23 57 -26 108 60 70 118 -13 21 -22 24 -66 22 -27 -1 -52 -4
-55 -7z m101 -35 c21 -32 5 -76 -28 -76 -30 0 -47 18 -47 50 0 51 48 68 75 26z"/>
<path d="M1705 1365 c-29 -28 -31 -45 -10 -84 26 -50 95 -50 120 0 8 15 15 35
15 44 0 25 -46 65 -75 65 -14 0 -37 -11 -50 -25z m79 -11 c29 -29 11 -84 -27
-84 -31 0 -47 18 -47 52 0 42 45 62 74 32z"/>
<path d="M1844 1364 c3 -16 12 -48 18 -71 16 -56 41 -57 57 -3 15 50 26 51 38
3 14 -61 41 -51 64 22 22 70 22 75 9 75 -6 0 -15 -12 -20 -27 -26 -70 -26 -71
-42 -23 -19 57 -39 57 -57 2 -15 -48 -25 -46 -38 7 -11 44 -39 58 -29 15z"/>
<path d="M2069 1369 c-48 -48 3 -143 67 -122 44 15 44 36 -1 27 -27 -5 -40 -3
-46 7 -16 25 -10 29 41 29 43 0 50 3 50 20 0 28 -35 60 -65 60 -14 0 -34 -9
-46 -21z m65 -5 c30 -12 18 -34 -19 -34 -37 0 -43 8 -23 28 14 14 20 14 42 6z"/>
<path d="M2209 1356 c-1 -17 -2 -46 -3 -65 0 -19 4 -36 12 -38 8 -3 12 10 12
46 0 46 3 53 25 61 36 14 31 28 -10 27 -32 -1 -35 -4 -36 -31z"/>
<path d="M2306 1383 c-3 -3 -6 -35 -6 -70 0 -49 3 -63 15 -63 12 0 15 14 15
64 0 60 -8 84 -24 69z"/>
<path d="M2360 1318 c0 -53 3 -68 14 -68 11 0 16 15 18 51 6 96 68 89 68 -8 0
-24 5 -43 10 -43 15 0 12 116 -3 128 -7 6 -34 10 -60 9 l-47 -2 0 -67z"/>
<path d="M2532 1374 c-16 -11 -22 -25 -22 -53 0 -51 27 -76 75 -68 37 6 47 -7
23 -31 -15 -15 -54 -16 -63 -2 -9 15 -25 12 -25 -4 0 -22 57 -38 83 -24 34 17
37 27 37 113 l0 81 -43 2 c-26 1 -52 -5 -65 -14z m72 -20 c9 -8 16 -24 16 -34
0 -19 -25 -50 -40 -50 -28 0 -40 15 -40 50 0 49 33 66 64 34z"/>
<path d="M2932 1373 c-61 -52 -7 -148 68 -122 43 15 37 28 -12 26 -33 -2 -43
2 -46 16 -3 14 4 17 41 17 53 0 59 5 46 38 -17 45 -60 56 -97 25z m66 -15 c20
-20 14 -28 -23 -28 -24 0 -35 5 -35 14 0 24 39 33 58 14z"/>
<path d="M3070 1375 c-10 -13 -7 -14 26 -12 30 1 39 -2 42 -15 3 -14 -3 -18
-27 -18 -31 0 -61 -22 -61 -45 0 -24 42 -43 83 -38 l37 5 0 53 c0 35 -5 59
-16 69 -20 20 -68 21 -84 1z m68 -82 c-4 -20 -35 -30 -50 -15 -15 15 0 32 28
32 19 0 25 -5 22 -17z"/>
<path d="M3200 1336 c0 -43 5 -61 21 -77 11 -11 27 -18 36 -15 8 3 26 6 39 6
23 0 24 3 24 71 0 87 -22 93 -30 8 -5 -50 -7 -54 -30 -54 -23 0 -25 4 -30 54
-7 76 -30 81 -30 7z"/>
<path d="M3450 1380 c0 -6 11 -38 25 -71 23 -57 23 -63 9 -91 -14 -28 -14 -29
2 -26 12 2 31 35 56 97 21 52 36 97 33 99 -8 8 -35 -20 -35 -37 -1 -9 -7 -27
-15 -41 l-14 -25 -14 35 c-8 19 -17 43 -20 53 -7 18 -27 24 -27 7z"/>
<path d="M3612 1374 c-33 -23 -31 -86 5 -114 19 -15 35 -19 53 -15 34 9 47 22
33 36 -8 8 -13 8 -17 0 -12 -18 -55 -12 -66 9 -24 45 16 94 58 71 23 -13 36
-3 21 16 -15 18 -59 17 -87 -3z"/>
<path d="M3753 1383 c-23 -9 -14 -25 11 -19 30 7 56 -2 56 -20 0 -9 -12 -14
-34 -14 -40 0 -60 -21 -52 -54 6 -26 40 -40 65 -27 9 5 22 6 29 4 16 -6 17
108 0 125 -12 12 -52 15 -75 5z m65 -90 c-2 -11 -14 -19 -31 -21 -22 -3 -27 1
-27 17 0 17 6 21 31 21 24 0 30 -4 27 -17z"/>
<path d="M3880 1318 c0 -39 4 -68 10 -68 6 0 10 20 10 45 0 36 4 47 25 61 34
22 31 32 -10 31 l-35 -1 0 -68z"/>
<path d="M3982 1374 c-16 -11 -22 -25 -22 -53 0 -55 46 -90 95 -71 39 15 30
29 -17 27 -33 -2 -43 2 -46 16 -3 14 4 17 47 17 47 0 51 2 51 23 0 50 -62 73
-108 41z m62 -10 c30 -12 18 -34 -19 -34 -37 0 -43 8 -23 28 14 14 20 14 42 6z"/>
</g>
</svg>
